# xmcd CD database file
#
# Track frame offsets:
#	150
#	19407
#	37366
#	48940
#	64646
#	85777
#	125971
#	146777
#	160648
#
# Disc length: 2419 seconds
#
# Revision: 0
# Processed by: cddbd v1.5.1PL2 Copyright (c) Steve Scherf et al.
# Submitted via: CDex 1.51
#
DISCID=80097109
DTITLE=Stefan Distelmann - Folk Blues band
DYEAR=1978
DGENRE=Blues
TTITLE0=Reichsbahn- Blues
TTITLE1=Ma Babe
TTITLE2=Blues für Kinder
TTITLE3=Key to The Highway
TTITLE4=Caldonia
TTITLE5=Flamenco
TTITLE6=Blues für Memphis Slim
TTITLE7=Rockin, The House
TTITLE8=Stormy Monday Blues
EXTD=YEAR: 1978
EXTT0=
EXTT1=
EXTT2=
EXTT3=
EXTT4=
EXTT5=
EXTT6=
EXTT7=
EXTT8=
PLAYORDER=
